<svg width="20" height="20" viewBox="0 0 20 20" fill="none" xmlns="http://www.w3.org/2000/svg">
<g clip-path="url(#clip0_3280_24049)">
<path d="M10.0959 2.32422H9.99974C5.7585 2.32422 2.32031 5.76241 2.32031 10.0036C2.32031 14.2449 5.7585 17.6831 9.99974 17.6831C10.2218 17.6831 10.488 17.6566 10.7633 17.6161C11.232 17.5475 11.5113 17.2528 11.6169 16.892C11.7273 16.515 11.6434 16.0753 11.3513 15.7598L10.5865 14.9324C9.78563 14.0643 10.6388 12.6868 11.7754 13.0284L13.3332 13.4957C15.1171 14.0307 17.0352 13.0995 17.4699 11.2914C17.595 10.7727 17.6792 10.3077 17.6792 10.0031C17.6792 5.79391 14.2928 2.37571 10.0959 2.32422Z" stroke="url(#paint0_linear_3280_24049)" stroke-width="3.3" stroke-linecap="round" stroke-linejoin="round"/>
<g filter="url(#filter0_f_3280_24049)">
<path d="M10.0768 3.85254H9.99987C6.60479 3.85254 3.85254 6.60479 3.85254 9.99987C3.85254 13.395 6.60479 16.1472 9.99987 16.1472C10.1776 16.1472 10.3907 16.126 10.6111 16.0936C10.9863 16.0387 11.2099 15.8028 11.2944 15.514C11.3828 15.2122 11.3156 14.8602 11.0818 14.6076L10.4695 13.9453C9.82848 13.2504 10.5114 12.1477 11.4213 12.4211L12.6683 12.7953C14.0963 13.2235 15.6317 12.478 15.9797 11.0307C16.0798 10.6155 16.1472 10.2433 16.1472 9.9994C16.1472 6.63001 13.4364 3.89376 10.0768 3.85254Z" fill="white"/>
</g>
<path d="M9.73232 6.25619C9.94513 6.25619 10.1492 6.17165 10.2997 6.02117C10.4502 5.87068 10.5347 5.66659 10.5347 5.45378C10.5347 5.24096 10.4502 5.03687 10.2997 4.88639C10.1492 4.73591 9.94513 4.65137 9.73232 4.65137C9.5195 4.65137 9.31541 4.73591 9.16493 4.88639C9.01445 5.03687 8.92991 5.24096 8.92991 5.45378C8.92991 5.66659 9.01445 5.87068 9.16493 6.02117C9.31541 6.17165 9.5195 6.25619 9.73232 6.25619ZM14.5468 10.5357C14.7596 10.5357 14.9637 10.4512 15.1142 10.3007C15.2646 10.1502 15.3492 9.9461 15.3492 9.73329C15.3492 9.52048 15.2646 9.31638 15.1142 9.1659C14.9637 9.01542 14.7596 8.93088 14.5468 8.93088C14.334 8.93088 14.1299 9.01542 13.9794 9.1659C13.8289 9.31638 13.7444 9.52048 13.7444 9.73329C13.7444 9.9461 13.8289 10.1502 13.9794 10.3007C14.1299 10.4512 14.334 10.5357 14.5468 10.5357ZM13.7444 6.52366C13.7444 6.73647 13.6598 6.94056 13.5093 7.09104C13.3589 7.24153 13.1548 7.32606 12.942 7.32606C12.7291 7.32606 12.525 7.24153 12.3746 7.09104C12.2241 6.94056 12.1395 6.73647 12.1395 6.52366C12.1395 6.31084 12.2241 6.10675 12.3746 5.95627C12.525 5.80579 12.7291 5.72125 12.942 5.72125C13.1548 5.72125 13.3589 5.80579 13.5093 5.95627C13.6598 6.10675 13.7444 6.31084 13.7444 6.52366ZM6.52268 7.861C6.73549 7.861 6.93959 7.77646 7.09007 7.62598C7.24055 7.4755 7.32509 7.27141 7.32509 7.05859C7.32509 6.84578 7.24055 6.64169 7.09007 6.49121C6.93959 6.34072 6.73549 6.25619 6.52268 6.25619C6.30987 6.25619 6.10577 6.34072 5.95529 6.49121C5.80481 6.64169 5.72027 6.84578 5.72027 7.05859C5.72027 7.27141 5.80481 7.4755 5.95529 7.62598C6.10577 7.77646 6.30987 7.861 6.52268 7.861ZM6.25521 10.2682C6.25521 10.481 6.17067 10.6851 6.02019 10.8356C5.86971 10.9861 5.66561 11.0706 5.4528 11.0706C5.23999 11.0706 5.03589 10.9861 4.88541 10.8356C4.73493 10.6851 4.65039 10.481 4.65039 10.2682C4.65039 10.0554 4.73493 9.85132 4.88541 9.70084C5.03589 9.55036 5.23999 9.46582 5.4528 9.46582C5.66561 9.46582 5.86971 9.55036 6.02019 9.70084C6.17067 9.85132 6.25521 10.0554 6.25521 10.2682Z" fill="url(#paint1_linear_3280_24049)"/>
</g>
<defs>
<filter id="filter0_f_3280_24049" x="-0.806198" y="-0.806198" width="21.6124" height="21.6119" filterUnits="userSpaceOnUse" color-interpolation-filters="sRGB">
<feFlood flood-opacity="0" result="BackgroundImageFix"/>
<feBlend mode="normal" in="SourceGraphic" in2="BackgroundImageFix" result="shape"/>
<feGaussianBlur stdDeviation="2.32937" result="effect1_foregroundBlur_3280_24049"/>
</filter>
<linearGradient id="paint0_linear_3280_24049" x1="10.342" y1="2.32744" x2="19.1197" y2="33.4805" gradientUnits="userSpaceOnUse">
<stop stop-color="#FF9F23"/>
<stop offset="1" stop-color="#FFD7DE" stop-opacity="0"/>
</linearGradient>
<linearGradient id="paint1_linear_3280_24049" x1="10.2382" y1="4.65271" x2="11.9043" y2="21.4572" gradientUnits="userSpaceOnUse">
<stop stop-color="#FF9F23"/>
<stop offset="1" stop-color="#FFD7DE" stop-opacity="0"/>
</linearGradient>
<clipPath id="clip0_3280_24049">
<rect width="20" height="20" fill="white"/>
</clipPath>
</defs>
</svg>
